<mxfile host="app.diagrams.net" modified="2021-08-13T07:19:47.586Z" agent="5.0 (Windows NT 10.0; Win64; x64) AppleWebKit/537.36 (KHTML, like Gecko) Chrome/92.0.4515.107 Safari/537.36" etag="Ro9JZ9pysQqOdcxyibSk" version="14.9.6" type="github">
  <diagram id="rwevO13PKcZM6P_MfvjH" name="Page-1">
    <mxGraphModel dx="1038" dy="547" grid="1" gridSize="10" guides="1" tooltips="1" connect="1" arrows="1" fold="1" page="1" pageScale="1" pageWidth="827" pageHeight="1169" math="0" shadow="0">
      <root>
        <mxCell id="0" />
        <mxCell id="1" parent="0" />
        <mxCell id="Yg39GBsklBpjysiHLigS-4" style="edgeStyle=orthogonalEdgeStyle;rounded=0;orthogonalLoop=1;jettySize=auto;html=1;entryX=0.16;entryY=0.55;entryDx=0;entryDy=0;entryPerimeter=0;" edge="1" parent="1" source="Yg39GBsklBpjysiHLigS-1" target="Yg39GBsklBpjysiHLigS-3">
          <mxGeometry relative="1" as="geometry">
            <mxPoint x="220" y="401" as="targetPoint" />
          </mxGeometry>
        </mxCell>
        <mxCell id="Yg39GBsklBpjysiHLigS-1" value="" style="fontColor=#0066CC;verticalAlign=top;verticalLabelPosition=bottom;labelPosition=center;align=center;html=1;outlineConnect=0;fillColor=#CCCCCC;strokeColor=#6881B3;gradientColor=none;gradientDirection=north;strokeWidth=2;shape=mxgraph.networks.patch_panel;" vertex="1" parent="1">
          <mxGeometry x="80" y="383" width="100" height="35" as="geometry" />
        </mxCell>
        <mxCell id="Yg39GBsklBpjysiHLigS-2" value="应用服务" style="text;html=1;strokeColor=none;fillColor=none;align=center;verticalAlign=middle;whiteSpace=wrap;rounded=0;" vertex="1" parent="1">
          <mxGeometry x="95" y="350" width="70" height="20" as="geometry" />
        </mxCell>
        <mxCell id="Yg39GBsklBpjysiHLigS-7" value="" style="edgeStyle=orthogonalEdgeStyle;rounded=0;orthogonalLoop=1;jettySize=auto;html=1;" edge="1" parent="1" source="Yg39GBsklBpjysiHLigS-3" target="Yg39GBsklBpjysiHLigS-6">
          <mxGeometry relative="1" as="geometry" />
        </mxCell>
        <mxCell id="Yg39GBsklBpjysiHLigS-3" value="通知中心" style="ellipse;shape=cloud;whiteSpace=wrap;html=1;" vertex="1" parent="1">
          <mxGeometry x="219" y="356.5" width="120" height="80" as="geometry" />
        </mxCell>
        <mxCell id="Yg39GBsklBpjysiHLigS-11" style="edgeStyle=orthogonalEdgeStyle;rounded=0;orthogonalLoop=1;jettySize=auto;html=1;entryX=0.06;entryY=0.5;entryDx=0;entryDy=0;entryPerimeter=0;" edge="1" parent="1" source="Yg39GBsklBpjysiHLigS-6" target="Yg39GBsklBpjysiHLigS-9">
          <mxGeometry relative="1" as="geometry" />
        </mxCell>
        <mxCell id="Yg39GBsklBpjysiHLigS-6" value="" style="fontColor=#0066CC;verticalAlign=top;verticalLabelPosition=bottom;labelPosition=center;align=center;html=1;outlineConnect=0;fillColor=#CCCCCC;strokeColor=#6881B3;gradientColor=none;gradientDirection=north;strokeWidth=2;shape=mxgraph.networks.firewall;" vertex="1" parent="1">
          <mxGeometry x="400" y="346" width="100" height="100" as="geometry" />
        </mxCell>
        <mxCell id="Yg39GBsklBpjysiHLigS-8" value="&lt;b&gt;&lt;font style=&quot;font-size: 14px&quot;&gt;防火墙&lt;/font&gt;&lt;/b&gt;" style="text;html=1;strokeColor=none;fillColor=none;align=center;verticalAlign=middle;whiteSpace=wrap;rounded=0;" vertex="1" parent="1">
          <mxGeometry x="418" y="460" width="60" height="20" as="geometry" />
        </mxCell>
        <mxCell id="Yg39GBsklBpjysiHLigS-9" value="&lt;font color=&quot;#000000&quot; size=&quot;1&quot;&gt;&lt;b style=&quot;font-size: 14px&quot;&gt;MAS&lt;/b&gt;&lt;/font&gt;" style="html=1;outlineConnect=0;fillColor=#CCCCCC;strokeColor=#6881B3;gradientColor=none;gradientDirection=north;strokeWidth=2;shape=mxgraph.networks.cloud;fontColor=#ffffff;" vertex="1" parent="1">
          <mxGeometry x="610" y="370" width="90" height="52" as="geometry" />
        </mxCell>
        <mxCell id="Yg39GBsklBpjysiHLigS-10" value="&lt;b&gt;&lt;font style=&quot;font-size: 14px&quot;&gt;中国移动短信平台&lt;/font&gt;&lt;/b&gt;" style="text;html=1;strokeColor=none;fillColor=none;align=center;verticalAlign=middle;whiteSpace=wrap;rounded=0;" vertex="1" parent="1">
          <mxGeometry x="600" y="460" width="130" height="20" as="geometry" />
        </mxCell>
      </root>
    </mxGraphModel>
  </diagram>
</mxfile>
